# xmcd
#
# Track frame offsets:
#	150
#	16040
#	36404
#	50748
#	67542
#	84245
#	99360
#	116543
#	144236
#	161575
#
# Disc length: 2420 seconds
#
# Revision: 0
# Processed by: cddbd v1.5.1PL0 Copyright (c) Steve Scherf et al.
# Submitted via: dBpowerAMP V4.0
#
DISCID=6f09720a
DTITLE=Various Artist - Original Carolina Beach Music - Summer Love
DYEAR=1999
DGENRE=Beach
TTITLE0=Fabulous Kays - Summer Love
TTITLE1=Breeze - No One
TTITLE2=Catalinas - Helpless
TTITLE3=Donny and Susan Trexler - Out of My Mind
TTITLE4=Entertainers - Love You Like I Never Loved Before
TTITLE5=J. D. Cash - Sit Down and Talk To Me
TTITLE6=Fabbulous Kays - Supernatural Thing
TTITLE7=Maurice Williams - Stay
TTITLE8=Fantastic Shakers - One Moment Away From Love
TTITLE9=Maurice Williams and Janice Barnett - Love Is Here
EXTD=(C) 1999 EMI, UPC: 72427-71122
EXTT0=
EXTT1=
EXTT2=
EXTT3=
EXTT4=
EXTT5=
EXTT6=
EXTT7=
EXTT8=
EXTT9=
PLAYORDER=
